<mxfile host="app.diagrams.net" agent="Mozilla/5.0 (Windows NT 10.0; Win64; x64) AppleWebKit/537.36 (KHTML, like Gecko) Chrome/130.0.0.0 Safari/537.36 Edg/130.0.0.0" version="24.8.3">
  <diagram name="第 1 页" id="EbkbhY3WJUrrdxJgSxsh">
    <mxGraphModel dx="996" dy="3001" grid="1" gridSize="10" guides="1" tooltips="1" connect="1" arrows="1" fold="1" page="1" pageScale="1" pageWidth="827" pageHeight="1169" math="0" shadow="0">
      <root>
        <mxCell id="0" />
        <mxCell id="1" parent="0" />
        <mxCell id="l4wrO5oQ-57OkwG1G9x9-123" value="chatgml6B" style="rounded=0;whiteSpace=wrap;html=1;labelBackgroundColor=none;fillColor=#A8DADC;strokeColor=#457B9D;fontColor=#1D3557;" parent="1" vertex="1">
          <mxGeometry x="200" y="-2080" width="80" height="40" as="geometry" />
        </mxCell>
        <mxCell id="l4wrO5oQ-57OkwG1G9x9-124" value="TTS" style="rounded=0;whiteSpace=wrap;html=1;labelBackgroundColor=none;fillColor=#A8DADC;strokeColor=#457B9D;fontColor=#1D3557;" parent="1" vertex="1">
          <mxGeometry x="200" y="-2000" width="80" height="40" as="geometry" />
        </mxCell>
        <mxCell id="l4wrO5oQ-57OkwG1G9x9-125" value="SST" style="rounded=0;whiteSpace=wrap;html=1;labelBackgroundColor=none;fillColor=#A8DADC;strokeColor=#457B9D;fontColor=#1D3557;" parent="1" vertex="1">
          <mxGeometry x="200" y="-1920" width="80" height="40" as="geometry" />
        </mxCell>
        <mxCell id="l4wrO5oQ-57OkwG1G9x9-126" value="WebApp" style="rounded=0;whiteSpace=wrap;html=1;labelBackgroundColor=none;fillColor=#A8DADC;strokeColor=#457B9D;fontColor=#1D3557;" parent="1" vertex="1">
          <mxGeometry x="200" y="-1760" width="80" height="40" as="geometry" />
        </mxCell>
        <mxCell id="l4wrO5oQ-57OkwG1G9x9-127" value="温湿度" style="rounded=0;whiteSpace=wrap;html=1;labelBackgroundColor=none;fillColor=#A8DADC;strokeColor=#457B9D;fontColor=#1D3557;" parent="1" vertex="1">
          <mxGeometry x="200" y="-1840" width="75" height="40" as="geometry" />
        </mxCell>
        <mxCell id="l4wrO5oQ-57OkwG1G9x9-128" value="Server" style="text;html=1;align=center;verticalAlign=middle;resizable=0;points=[];autosize=1;strokeColor=none;fillColor=none;labelBackgroundColor=none;fontColor=#1D3557;" parent="1" vertex="1">
          <mxGeometry x="170" y="-2160" width="60" height="30" as="geometry" />
        </mxCell>
        <mxCell id="l4wrO5oQ-57OkwG1G9x9-129" value="API" style="text;html=1;align=center;verticalAlign=middle;resizable=0;points=[];autosize=1;strokeColor=none;fillColor=none;labelBackgroundColor=none;fontColor=#1D3557;" parent="1" vertex="1">
          <mxGeometry x="260" y="-2160" width="40" height="30" as="geometry" />
        </mxCell>
        <mxCell id="l4wrO5oQ-57OkwG1G9x9-130" value="Client" style="text;html=1;align=center;verticalAlign=middle;resizable=0;points=[];autosize=1;strokeColor=none;fillColor=none;fontColor=#1D3557;labelBackgroundColor=none;" parent="1" vertex="1">
          <mxGeometry x="414" y="-2160" width="50" height="30" as="geometry" />
        </mxCell>
        <mxCell id="l4wrO5oQ-57OkwG1G9x9-131" value="SDK" style="text;html=1;align=center;verticalAlign=middle;resizable=0;points=[];autosize=1;strokeColor=none;fillColor=none;fontColor=#1D3557;labelBackgroundColor=none;" parent="1" vertex="1">
          <mxGeometry x="505" y="-2160" width="50" height="30" as="geometry" />
        </mxCell>
        <mxCell id="l4wrO5oQ-57OkwG1G9x9-132" value="chat" style="whiteSpace=wrap;html=1;strokeColor=#457B9D;fontColor=#1D3557;fillColor=#A8DADC;labelBackgroundColor=none;" parent="1" vertex="1">
          <mxGeometry x="440" y="-2080" width="80" height="40" as="geometry" />
        </mxCell>
        <mxCell id="l4wrO5oQ-57OkwG1G9x9-133" value="温湿度" style="whiteSpace=wrap;html=1;strokeColor=#457B9D;fontColor=#1D3557;fillColor=#A8DADC;labelBackgroundColor=none;" parent="1" vertex="1">
          <mxGeometry x="440" y="-1840" width="80" height="40" as="geometry" />
        </mxCell>
        <mxCell id="l4wrO5oQ-57OkwG1G9x9-134" value="STT" style="whiteSpace=wrap;html=1;strokeColor=#457B9D;fontColor=#1D3557;fillColor=#A8DADC;labelBackgroundColor=none;" parent="1" vertex="1">
          <mxGeometry x="440" y="-1920" width="80" height="40" as="geometry" />
        </mxCell>
        <mxCell id="l4wrO5oQ-57OkwG1G9x9-135" value="TTS" style="whiteSpace=wrap;html=1;strokeColor=#457B9D;fontColor=#1D3557;fillColor=#A8DADC;labelBackgroundColor=none;" parent="1" vertex="1">
          <mxGeometry x="440" y="-2000" width="80" height="40" as="geometry" />
        </mxCell>
        <mxCell id="l4wrO5oQ-57OkwG1G9x9-136" value="驱动" style="whiteSpace=wrap;html=1;strokeColor=#457B9D;fontColor=#1D3557;fillColor=#A8DADC;labelBackgroundColor=none;" parent="1" vertex="1">
          <mxGeometry x="440" y="-1760" width="80" height="40" as="geometry" />
        </mxCell>
        <mxCell id="l4wrO5oQ-57OkwG1G9x9-137" value="" style="strokeWidth=2;html=1;shape=mxgraph.flowchart.annotation_2;align=left;labelPosition=right;pointerEvents=1;labelBackgroundColor=none;fillColor=#A8DADC;strokeColor=#457B9D;fontColor=#1D3557;" parent="1" vertex="1">
          <mxGeometry x="520" y="-2110" width="50" height="100" as="geometry" />
        </mxCell>
        <mxCell id="l4wrO5oQ-57OkwG1G9x9-138" value="" style="strokeWidth=2;html=1;shape=mxgraph.flowchart.annotation_2;align=left;labelPosition=right;pointerEvents=1;labelBackgroundColor=none;fillColor=#A8DADC;strokeColor=#457B9D;fontColor=#1D3557;" parent="1" vertex="1">
          <mxGeometry x="520" y="-1790" width="50" height="100" as="geometry" />
        </mxCell>
        <mxCell id="l4wrO5oQ-57OkwG1G9x9-139" value="" style="line;strokeWidth=2;html=1;labelBackgroundColor=none;fillColor=#A8DADC;strokeColor=#457B9D;fontColor=#1D3557;" parent="1" vertex="1">
          <mxGeometry x="540" y="-2065" width="30" height="10" as="geometry" />
        </mxCell>
        <mxCell id="l4wrO5oQ-57OkwG1G9x9-140" value="" style="line;strokeWidth=2;html=1;labelBackgroundColor=none;fillColor=#A8DADC;strokeColor=#457B9D;fontColor=#1D3557;" parent="1" vertex="1">
          <mxGeometry x="540" y="-1745" width="30" height="10" as="geometry" />
        </mxCell>
        <mxCell id="l4wrO5oQ-57OkwG1G9x9-141" value="chatgml6B" style="rounded=0;whiteSpace=wrap;html=1;labelBackgroundColor=none;fillColor=#A8DADC;strokeColor=#457B9D;fontColor=#1D3557;" parent="1" vertex="1">
          <mxGeometry x="570" y="-2130" width="80" height="40" as="geometry" />
        </mxCell>
        <mxCell id="l4wrO5oQ-57OkwG1G9x9-142" value="腾讯混元" style="rounded=0;whiteSpace=wrap;html=1;labelBackgroundColor=none;fillColor=#A8DADC;strokeColor=#457B9D;fontColor=#1D3557;" parent="1" vertex="1">
          <mxGeometry x="570" y="-2030" width="80" height="40" as="geometry" />
        </mxCell>
        <mxCell id="l4wrO5oQ-57OkwG1G9x9-143" value="文心一言" style="rounded=0;whiteSpace=wrap;html=1;labelBackgroundColor=none;fillColor=#A8DADC;strokeColor=#457B9D;fontColor=#1D3557;" parent="1" vertex="1">
          <mxGeometry x="570" y="-2080" width="80" height="40" as="geometry" />
        </mxCell>
        <mxCell id="l4wrO5oQ-57OkwG1G9x9-144" value="&lt;span style=&quot;color: rgb(29, 53, 87); text-wrap-mode: nowrap;&quot;&gt;audio&amp;nbsp; output&lt;/span&gt;" style="rounded=0;whiteSpace=wrap;html=1;labelBackgroundColor=none;fillColor=#A8DADC;strokeColor=#457B9D;fontColor=#1D3557;" parent="1" vertex="1">
          <mxGeometry x="570" y="-1760" width="170" height="40" as="geometry" />
        </mxCell>
        <mxCell id="l4wrO5oQ-57OkwG1G9x9-145" value="&lt;span style=&quot;color: rgb(29, 53, 87); text-wrap-mode: nowrap;&quot;&gt;audio&amp;nbsp; &amp;nbsp;&lt;/span&gt;input" style="rounded=0;whiteSpace=wrap;html=1;labelBackgroundColor=none;fillColor=#A8DADC;strokeColor=#457B9D;fontColor=#1D3557;" parent="1" vertex="1">
          <mxGeometry x="570" y="-1810" width="170" height="40" as="geometry" />
        </mxCell>
        <mxCell id="l4wrO5oQ-57OkwG1G9x9-146" value="中断管理" style="whiteSpace=wrap;html=1;labelBackgroundColor=none;fillColor=#A8DADC;strokeColor=#457B9D;fontColor=#1D3557;" parent="1" vertex="1">
          <mxGeometry x="570" y="-1710" width="170" height="40" as="geometry" />
        </mxCell>
        <mxCell id="l4wrO5oQ-57OkwG1G9x9-147" value="&lt;font style=&quot;font-size: 14px;&quot;&gt;流程图&lt;/font&gt;" style="text;html=1;align=center;verticalAlign=middle;resizable=0;points=[];autosize=1;strokeColor=none;fillColor=none;fontColor=#1D3557;labelBackgroundColor=none;" parent="1" vertex="1">
          <mxGeometry x="940" y="-2160" width="70" height="30" as="geometry" />
        </mxCell>
        <mxCell id="l4wrO5oQ-57OkwG1G9x9-148" value="" style="endArrow=classic;html=1;rounded=0;strokeColor=#457B9D;fontColor=default;fillColor=#A8DADC;entryX=0.451;entryY=-0.026;entryDx=0;entryDy=0;entryPerimeter=0;labelBackgroundColor=none;" parent="1" target="l4wrO5oQ-57OkwG1G9x9-149" edge="1">
          <mxGeometry width="50" height="50" relative="1" as="geometry">
            <mxPoint x="974.37" y="-2130" as="sourcePoint" />
            <mxPoint x="974" y="-2050" as="targetPoint" />
            <Array as="points">
              <mxPoint x="974.37" y="-2130" />
            </Array>
          </mxGeometry>
        </mxCell>
        <mxCell id="l4wrO5oQ-57OkwG1G9x9-149" value="&lt;font style=&quot;font-size: 14px;&quot;&gt;返回开启信号&lt;/font&gt;" style="whiteSpace=wrap;html=1;strokeColor=#457B9D;fontColor=#1D3557;fillColor=#A8DADC;labelBackgroundColor=none;" parent="1" vertex="1">
          <mxGeometry x="920" y="-2040" width="120" height="80" as="geometry" />
        </mxCell>
        <mxCell id="l4wrO5oQ-57OkwG1G9x9-150" value="&lt;font style=&quot;font-size: 14px;&quot;&gt;是否收到&lt;/font&gt;" style="rhombus;whiteSpace=wrap;html=1;strokeColor=#457B9D;fontColor=#1D3557;fillColor=#A8DADC;labelBackgroundColor=none;" parent="1" vertex="1">
          <mxGeometry x="1110" y="-1970" width="100" height="100" as="geometry" />
        </mxCell>
        <mxCell id="l4wrO5oQ-57OkwG1G9x9-151" value="&lt;font style=&quot;font-size: 14px;&quot;&gt;停止收集返回音频路径&lt;/font&gt;" style="whiteSpace=wrap;html=1;strokeColor=#457B9D;fontColor=#1D3557;fillColor=#A8DADC;labelBackgroundColor=none;" parent="1" vertex="1">
          <mxGeometry x="1280" y="-1960" width="120" height="80" as="geometry" />
        </mxCell>
        <mxCell id="l4wrO5oQ-57OkwG1G9x9-152" value="&lt;span style=&quot;font-size: 14px;&quot;&gt;开始收集&lt;/span&gt;" style="whiteSpace=wrap;html=1;strokeColor=#457B9D;fontColor=#1D3557;fillColor=#A8DADC;labelBackgroundColor=none;" parent="1" vertex="1">
          <mxGeometry x="920" y="-1882" width="120" height="82" as="geometry" />
        </mxCell>
        <mxCell id="l4wrO5oQ-57OkwG1G9x9-153" value="" style="endArrow=classic;html=1;rounded=0;strokeColor=#457B9D;fontColor=default;fillColor=#A8DADC;entryX=0;entryY=0.5;entryDx=0;entryDy=0;labelBackgroundColor=none;" parent="1" target="l4wrO5oQ-57OkwG1G9x9-151" edge="1">
          <mxGeometry width="50" height="50" relative="1" as="geometry">
            <mxPoint x="1211" y="-1920" as="sourcePoint" />
            <mxPoint x="1271" y="-1920" as="targetPoint" />
          </mxGeometry>
        </mxCell>
        <mxCell id="l4wrO5oQ-57OkwG1G9x9-154" value="" style="endArrow=classic;html=1;rounded=0;strokeColor=#457B9D;fontColor=default;fillColor=#A8DADC;exitX=0.496;exitY=1;exitDx=0;exitDy=0;exitPerimeter=0;labelBackgroundColor=none;" parent="1" source="l4wrO5oQ-57OkwG1G9x9-149" edge="1">
          <mxGeometry width="50" height="50" relative="1" as="geometry">
            <mxPoint x="980" y="-1950" as="sourcePoint" />
            <mxPoint x="979.47" y="-1882" as="targetPoint" />
          </mxGeometry>
        </mxCell>
        <mxCell id="l4wrO5oQ-57OkwG1G9x9-155" value="" style="endArrow=classic;html=1;rounded=0;strokeColor=#457B9D;fontColor=default;fillColor=#A8DADC;labelBackgroundColor=none;" parent="1" edge="1">
          <mxGeometry width="50" height="50" relative="1" as="geometry">
            <mxPoint x="980" y="-1921" as="sourcePoint" />
            <mxPoint x="1110" y="-1921.05" as="targetPoint" />
          </mxGeometry>
        </mxCell>
        <mxCell id="l4wrO5oQ-57OkwG1G9x9-156" value="" style="endArrow=classic;html=1;rounded=0;strokeColor=#457B9D;fontColor=default;fillColor=#A8DADC;labelBackgroundColor=none;" parent="1" edge="1">
          <mxGeometry width="50" height="50" relative="1" as="geometry">
            <mxPoint x="1159.47" y="-1840" as="sourcePoint" />
            <mxPoint x="1159" y="-1870" as="targetPoint" />
          </mxGeometry>
        </mxCell>
        <mxCell id="l4wrO5oQ-57OkwG1G9x9-157" value="" style="endArrow=classic;html=1;rounded=0;strokeColor=#457B9D;fontColor=default;fillColor=#A8DADC;labelBackgroundColor=none;" parent="1" edge="1">
          <mxGeometry width="50" height="50" relative="1" as="geometry">
            <mxPoint x="1030" y="-1840" as="sourcePoint" />
            <mxPoint x="1160" y="-1840" as="targetPoint" />
          </mxGeometry>
        </mxCell>
        <mxCell id="l4wrO5oQ-57OkwG1G9x9-158" value="否" style="text;html=1;align=center;verticalAlign=middle;resizable=0;points=[];autosize=1;strokeColor=none;fillColor=none;fontColor=#1D3557;labelBackgroundColor=none;" parent="1" vertex="1">
          <mxGeometry x="1030" y="-1952" width="40" height="30" as="geometry" />
        </mxCell>
        <mxCell id="l4wrO5oQ-57OkwG1G9x9-159" value="是" style="text;html=1;align=center;verticalAlign=middle;resizable=0;points=[];autosize=1;strokeColor=none;fillColor=none;fontColor=#1D3557;labelBackgroundColor=none;" parent="1" vertex="1">
          <mxGeometry x="1220" y="-1952" width="40" height="30" as="geometry" />
        </mxCell>
        <mxCell id="l4wrO5oQ-57OkwG1G9x9-160" value="中断信号" style="text;html=1;align=center;verticalAlign=middle;resizable=0;points=[];autosize=1;strokeColor=none;fillColor=none;fontColor=#1D3557;labelBackgroundColor=none;" parent="1" vertex="1">
          <mxGeometry x="1160" y="-1870" width="70" height="30" as="geometry" />
        </mxCell>
        <mxCell id="l4wrO5oQ-57OkwG1G9x9-161" value="start" style="text;html=1;align=center;verticalAlign=middle;resizable=0;points=[];autosize=1;strokeColor=none;fillColor=none;fontColor=#1D3557;labelBackgroundColor=none;" parent="1" vertex="1">
          <mxGeometry x="980" y="-2110" width="50" height="30" as="geometry" />
        </mxCell>
        <mxCell id="l4wrO5oQ-57OkwG1G9x9-162" value="" style="endArrow=classic;html=1;rounded=0;strokeColor=#457B9D;fontColor=default;fillColor=#A8DADC;entryX=0.967;entryY=0.626;entryDx=0;entryDy=0;entryPerimeter=0;labelBackgroundColor=none;" parent="1" edge="1">
          <mxGeometry width="50" height="50" relative="1" as="geometry">
            <mxPoint x="1400" y="-1920" as="sourcePoint" />
            <mxPoint x="1476.04" y="-1919.92" as="targetPoint" />
          </mxGeometry>
        </mxCell>
        <mxCell id="l4wrO5oQ-57OkwG1G9x9-163" value="end" style="text;html=1;align=center;verticalAlign=middle;resizable=0;points=[];autosize=1;strokeColor=none;fillColor=none;fontColor=#1D3557;labelBackgroundColor=none;" parent="1" vertex="1">
          <mxGeometry x="1420" y="-1962" width="40" height="30" as="geometry" />
        </mxCell>
        <mxCell id="l4wrO5oQ-57OkwG1G9x9-164" value="audio output" style="text;html=1;align=center;verticalAlign=middle;resizable=0;points=[];autosize=1;strokeColor=none;fillColor=none;fontColor=#1D3557;labelBackgroundColor=none;" parent="1" vertex="1">
          <mxGeometry x="880" y="-1690" width="90" height="30" as="geometry" />
        </mxCell>
        <mxCell id="l4wrO5oQ-57OkwG1G9x9-166" value="返回播放音频信号" style="whiteSpace=wrap;html=1;strokeColor=#457B9D;fontColor=#1D3557;fillColor=#A8DADC;labelBackgroundColor=none;" parent="1" vertex="1">
          <mxGeometry x="1000" y="-1640" width="100" height="40" as="geometry" />
        </mxCell>
        <mxCell id="l4wrO5oQ-57OkwG1G9x9-167" value="" style="endArrow=classic;html=1;rounded=0;strokeColor=#457B9D;fontColor=default;fillColor=#A8DADC;labelBackgroundColor=none;" parent="1" edge="1">
          <mxGeometry width="50" height="50" relative="1" as="geometry">
            <mxPoint x="1049.55" y="-1710" as="sourcePoint" />
            <mxPoint x="1049.55" y="-1640" as="targetPoint" />
          </mxGeometry>
        </mxCell>
        <mxCell id="l4wrO5oQ-57OkwG1G9x9-168" value="start" style="text;html=1;align=center;verticalAlign=middle;resizable=0;points=[];autosize=1;strokeColor=none;fillColor=none;fontColor=#1D3557;labelBackgroundColor=none;" parent="1" vertex="1">
          <mxGeometry x="1045" y="-1702" width="50" height="30" as="geometry" />
        </mxCell>
        <mxCell id="l4wrO5oQ-57OkwG1G9x9-169" value="进行播放" style="whiteSpace=wrap;html=1;strokeColor=#457B9D;fontColor=#1D3557;fillColor=#A8DADC;labelBackgroundColor=none;" parent="1" vertex="1">
          <mxGeometry x="1000" y="-1480" width="100" height="40" as="geometry" />
        </mxCell>
        <mxCell id="l4wrO5oQ-57OkwG1G9x9-170" style="edgeStyle=orthogonalEdgeStyle;rounded=0;orthogonalLoop=1;jettySize=auto;html=1;exitX=1;exitY=1;exitDx=0;exitDy=0;strokeColor=#457B9D;fontColor=default;fillColor=#A8DADC;labelBackgroundColor=none;" parent="1" source="l4wrO5oQ-57OkwG1G9x9-171" edge="1">
          <mxGeometry relative="1" as="geometry">
            <mxPoint x="1400.454545454545" y="-1540.0909090909092" as="targetPoint" />
            <Array as="points">
              <mxPoint x="1401" y="-1515" />
            </Array>
          </mxGeometry>
        </mxCell>
        <mxCell id="l4wrO5oQ-57OkwG1G9x9-171" value="返回播放完成信号" style="whiteSpace=wrap;html=1;strokeColor=#457B9D;fontColor=#1D3557;fillColor=#A8DADC;labelBackgroundColor=none;" parent="1" vertex="1">
          <mxGeometry x="1341" y="-1595" width="119" height="80" as="geometry" />
        </mxCell>
        <mxCell id="l4wrO5oQ-57OkwG1G9x9-172" value="是否播放完成" style="rhombus;whiteSpace=wrap;html=1;strokeColor=#457B9D;fontColor=#1D3557;fillColor=#A8DADC;labelBackgroundColor=none;" parent="1" vertex="1">
          <mxGeometry x="1195" y="-1600" width="90" height="90" as="geometry" />
        </mxCell>
        <mxCell id="l4wrO5oQ-57OkwG1G9x9-173" value="" style="endArrow=classic;html=1;rounded=0;strokeColor=#457B9D;fontColor=default;fillColor=#A8DADC;labelBackgroundColor=none;" parent="1" target="l4wrO5oQ-57OkwG1G9x9-169" edge="1">
          <mxGeometry width="50" height="50" relative="1" as="geometry">
            <mxPoint x="1049.55" y="-1600" as="sourcePoint" />
            <mxPoint x="1049.55" y="-1560" as="targetPoint" />
          </mxGeometry>
        </mxCell>
        <mxCell id="l4wrO5oQ-57OkwG1G9x9-174" value="" style="endArrow=classic;html=1;rounded=0;strokeColor=#457B9D;fontColor=default;fillColor=#A8DADC;labelBackgroundColor=none;" parent="1" edge="1">
          <mxGeometry width="50" height="50" relative="1" as="geometry">
            <mxPoint x="1100" y="-1460" as="sourcePoint" />
            <mxPoint x="1241" y="-1510" as="targetPoint" />
            <Array as="points">
              <mxPoint x="1241" y="-1460" />
            </Array>
          </mxGeometry>
        </mxCell>
        <mxCell id="l4wrO5oQ-57OkwG1G9x9-175" value="" style="endArrow=classic;html=1;rounded=0;strokeColor=#457B9D;fontColor=default;fillColor=#A8DADC;labelBackgroundColor=none;" parent="1" edge="1">
          <mxGeometry width="50" height="50" relative="1" as="geometry">
            <mxPoint x="1050" y="-1555" as="sourcePoint" />
            <mxPoint x="1195" y="-1555" as="targetPoint" />
            <Array as="points">
              <mxPoint x="1115" y="-1555.45" />
            </Array>
          </mxGeometry>
        </mxCell>
        <mxCell id="l4wrO5oQ-57OkwG1G9x9-176" value="" style="endArrow=classic;html=1;rounded=0;strokeColor=#457B9D;fontColor=default;fillColor=#A8DADC;labelBackgroundColor=none;" parent="1" edge="1">
          <mxGeometry width="50" height="50" relative="1" as="geometry">
            <mxPoint x="1285" y="-1555.45" as="sourcePoint" />
            <mxPoint x="1340" y="-1555" as="targetPoint" />
          </mxGeometry>
        </mxCell>
        <mxCell id="l4wrO5oQ-57OkwG1G9x9-177" value="否" style="text;html=1;align=center;verticalAlign=middle;resizable=0;points=[];autosize=1;strokeColor=none;fillColor=none;fontColor=#1D3557;labelBackgroundColor=none;" parent="1" vertex="1">
          <mxGeometry x="1110" y="-1590" width="40" height="30" as="geometry" />
        </mxCell>
        <mxCell id="l4wrO5oQ-57OkwG1G9x9-178" value="是" style="text;html=1;align=center;verticalAlign=middle;resizable=0;points=[];autosize=1;strokeColor=none;fillColor=none;fontColor=#1D3557;labelBackgroundColor=none;" parent="1" vertex="1">
          <mxGeometry x="1285" y="-1590" width="40" height="30" as="geometry" />
        </mxCell>
        <mxCell id="l4wrO5oQ-57OkwG1G9x9-179" value="&lt;font style=&quot;font-size: 14px;&quot;&gt;chat&lt;/font&gt;" style="text;html=1;align=center;verticalAlign=middle;resizable=0;points=[];autosize=1;strokeColor=none;fillColor=none;fontColor=#1D3557;labelBackgroundColor=none;" parent="1" vertex="1">
          <mxGeometry x="1570" y="-2090" width="50" height="30" as="geometry" />
        </mxCell>
        <mxCell id="l4wrO5oQ-57OkwG1G9x9-180" value="" style="endArrow=classic;html=1;rounded=0;strokeColor=#457B9D;fontColor=default;fillColor=#A8DADC;labelBackgroundColor=none;" parent="1" edge="1">
          <mxGeometry width="50" height="50" relative="1" as="geometry">
            <mxPoint x="1640" y="-2110" as="sourcePoint" />
            <mxPoint x="1640" y="-2010" as="targetPoint" />
          </mxGeometry>
        </mxCell>
        <mxCell id="l4wrO5oQ-57OkwG1G9x9-181" value="start" style="text;html=1;align=center;verticalAlign=middle;resizable=0;points=[];autosize=1;strokeColor=none;fillColor=none;fontColor=#1D3557;labelBackgroundColor=none;" parent="1" vertex="1">
          <mxGeometry x="1640" y="-2070" width="50" height="30" as="geometry" />
        </mxCell>
        <mxCell id="l4wrO5oQ-57OkwG1G9x9-182" value="获取文本" style="whiteSpace=wrap;html=1;strokeColor=#457B9D;fontColor=#1D3557;fillColor=#A8DADC;labelBackgroundColor=none;" parent="1" vertex="1">
          <mxGeometry x="1600" y="-2010" width="90" height="40" as="geometry" />
        </mxCell>
        <mxCell id="l4wrO5oQ-57OkwG1G9x9-183" value="返回文本" style="whiteSpace=wrap;html=1;strokeColor=#457B9D;fontColor=#1D3557;fillColor=#A8DADC;labelBackgroundColor=none;" parent="1" vertex="1">
          <mxGeometry x="1600" y="-1852" width="90" height="40" as="geometry" />
        </mxCell>
        <mxCell id="l4wrO5oQ-57OkwG1G9x9-184" value="chat" style="whiteSpace=wrap;html=1;strokeColor=#457B9D;fontColor=#1D3557;fillColor=#A8DADC;labelBackgroundColor=none;" parent="1" vertex="1">
          <mxGeometry x="1600" y="-1932" width="90" height="40" as="geometry" />
        </mxCell>
        <mxCell id="l4wrO5oQ-57OkwG1G9x9-185" value="" style="endArrow=classic;html=1;rounded=0;strokeColor=#457B9D;fontColor=default;fillColor=#A8DADC;labelBackgroundColor=none;" parent="1" edge="1">
          <mxGeometry width="50" height="50" relative="1" as="geometry">
            <mxPoint x="1640" y="-1892" as="sourcePoint" />
            <mxPoint x="1640" y="-1852" as="targetPoint" />
          </mxGeometry>
        </mxCell>
        <mxCell id="l4wrO5oQ-57OkwG1G9x9-186" value="" style="endArrow=classic;html=1;rounded=0;strokeColor=#457B9D;fontColor=default;fillColor=#A8DADC;entryX=0.439;entryY=0.013;entryDx=0;entryDy=0;entryPerimeter=0;labelBackgroundColor=none;" parent="1" target="l4wrO5oQ-57OkwG1G9x9-184" edge="1">
          <mxGeometry width="50" height="50" relative="1" as="geometry">
            <mxPoint x="1640" y="-1970" as="sourcePoint" />
            <mxPoint x="1640" y="-1940" as="targetPoint" />
          </mxGeometry>
        </mxCell>
        <mxCell id="l4wrO5oQ-57OkwG1G9x9-187" value="" style="endArrow=classic;html=1;rounded=0;strokeColor=#457B9D;fontColor=default;fillColor=#A8DADC;labelBackgroundColor=none;" parent="1" edge="1">
          <mxGeometry width="50" height="50" relative="1" as="geometry">
            <mxPoint x="1640" y="-1810" as="sourcePoint" />
            <mxPoint x="1640" y="-1770" as="targetPoint" />
          </mxGeometry>
        </mxCell>
        <mxCell id="l4wrO5oQ-57OkwG1G9x9-188" value="end" style="text;html=1;align=center;verticalAlign=middle;resizable=0;points=[];autosize=1;strokeColor=none;fillColor=none;fontColor=#1D3557;labelBackgroundColor=none;" parent="1" vertex="1">
          <mxGeometry x="1640" y="-1805" width="40" height="30" as="geometry" />
        </mxCell>
        <mxCell id="l4wrO5oQ-57OkwG1G9x9-189" value="&lt;font style=&quot;font-size: 14px;&quot;&gt;TTS&lt;/font&gt;" style="text;html=1;align=center;verticalAlign=middle;resizable=0;points=[];autosize=1;strokeColor=none;fillColor=none;fontColor=#1D3557;labelBackgroundColor=none;" parent="1" vertex="1">
          <mxGeometry x="1720" y="-2090" width="50" height="30" as="geometry" />
        </mxCell>
        <mxCell id="l4wrO5oQ-57OkwG1G9x9-190" value="" style="endArrow=classic;html=1;rounded=0;strokeColor=#457B9D;fontColor=default;fillColor=#A8DADC;labelBackgroundColor=none;" parent="1" edge="1">
          <mxGeometry width="50" height="50" relative="1" as="geometry">
            <mxPoint x="1790" y="-2110" as="sourcePoint" />
            <mxPoint x="1790" y="-2010" as="targetPoint" />
          </mxGeometry>
        </mxCell>
        <mxCell id="l4wrO5oQ-57OkwG1G9x9-191" value="start" style="text;html=1;align=center;verticalAlign=middle;resizable=0;points=[];autosize=1;strokeColor=none;fillColor=none;fontColor=#1D3557;labelBackgroundColor=none;" parent="1" vertex="1">
          <mxGeometry x="1790" y="-2070" width="50" height="30" as="geometry" />
        </mxCell>
        <mxCell id="l4wrO5oQ-57OkwG1G9x9-192" value="获取文本" style="whiteSpace=wrap;html=1;strokeColor=#457B9D;fontColor=#1D3557;fillColor=#A8DADC;labelBackgroundColor=none;" parent="1" vertex="1">
          <mxGeometry x="1750" y="-2010" width="90" height="40" as="geometry" />
        </mxCell>
        <mxCell id="l4wrO5oQ-57OkwG1G9x9-193" value="返回音频文件" style="whiteSpace=wrap;html=1;strokeColor=#457B9D;fontColor=#1D3557;fillColor=#A8DADC;labelBackgroundColor=none;" parent="1" vertex="1">
          <mxGeometry x="1750" y="-1852" width="90" height="40" as="geometry" />
        </mxCell>
        <mxCell id="l4wrO5oQ-57OkwG1G9x9-194" value="TTS" style="whiteSpace=wrap;html=1;strokeColor=#457B9D;fontColor=#1D3557;fillColor=#A8DADC;labelBackgroundColor=none;" parent="1" vertex="1">
          <mxGeometry x="1750" y="-1932" width="90" height="40" as="geometry" />
        </mxCell>
        <mxCell id="l4wrO5oQ-57OkwG1G9x9-195" value="" style="endArrow=classic;html=1;rounded=0;strokeColor=#457B9D;fontColor=default;fillColor=#A8DADC;labelBackgroundColor=none;" parent="1" edge="1">
          <mxGeometry width="50" height="50" relative="1" as="geometry">
            <mxPoint x="1790" y="-1892" as="sourcePoint" />
            <mxPoint x="1790" y="-1852" as="targetPoint" />
          </mxGeometry>
        </mxCell>
        <mxCell id="l4wrO5oQ-57OkwG1G9x9-196" value="" style="endArrow=classic;html=1;rounded=0;strokeColor=#457B9D;fontColor=default;fillColor=#A8DADC;entryX=0.439;entryY=0.013;entryDx=0;entryDy=0;entryPerimeter=0;labelBackgroundColor=none;" parent="1" target="l4wrO5oQ-57OkwG1G9x9-194" edge="1">
          <mxGeometry width="50" height="50" relative="1" as="geometry">
            <mxPoint x="1790" y="-1970" as="sourcePoint" />
            <mxPoint x="1790" y="-1940" as="targetPoint" />
          </mxGeometry>
        </mxCell>
        <mxCell id="l4wrO5oQ-57OkwG1G9x9-197" value="" style="endArrow=classic;html=1;rounded=0;strokeColor=#457B9D;fontColor=default;fillColor=#A8DADC;labelBackgroundColor=none;" parent="1" edge="1">
          <mxGeometry width="50" height="50" relative="1" as="geometry">
            <mxPoint x="1790" y="-1810" as="sourcePoint" />
            <mxPoint x="1790" y="-1770" as="targetPoint" />
          </mxGeometry>
        </mxCell>
        <mxCell id="l4wrO5oQ-57OkwG1G9x9-198" value="end" style="text;html=1;align=center;verticalAlign=middle;resizable=0;points=[];autosize=1;strokeColor=none;fillColor=none;fontColor=#1D3557;labelBackgroundColor=none;" parent="1" vertex="1">
          <mxGeometry x="1790" y="-1805" width="40" height="30" as="geometry" />
        </mxCell>
        <mxCell id="l4wrO5oQ-57OkwG1G9x9-199" value="&lt;font style=&quot;font-size: 14px;&quot;&gt;STT&lt;/font&gt;" style="text;html=1;align=center;verticalAlign=middle;resizable=0;points=[];autosize=1;strokeColor=none;fillColor=none;fontColor=#1D3557;labelBackgroundColor=none;" parent="1" vertex="1">
          <mxGeometry x="1860" y="-2090" width="50" height="30" as="geometry" />
        </mxCell>
        <mxCell id="l4wrO5oQ-57OkwG1G9x9-200" value="" style="endArrow=classic;html=1;rounded=0;strokeColor=#457B9D;fontColor=default;fillColor=#A8DADC;labelBackgroundColor=none;" parent="1" edge="1">
          <mxGeometry width="50" height="50" relative="1" as="geometry">
            <mxPoint x="1930" y="-2110" as="sourcePoint" />
            <mxPoint x="1930" y="-2010" as="targetPoint" />
          </mxGeometry>
        </mxCell>
        <mxCell id="l4wrO5oQ-57OkwG1G9x9-201" value="start" style="text;html=1;align=center;verticalAlign=middle;resizable=0;points=[];autosize=1;strokeColor=none;fillColor=none;fontColor=#1D3557;labelBackgroundColor=none;" parent="1" vertex="1">
          <mxGeometry x="1930" y="-2070" width="50" height="30" as="geometry" />
        </mxCell>
        <mxCell id="l4wrO5oQ-57OkwG1G9x9-202" value="获取音频" style="whiteSpace=wrap;html=1;strokeColor=#457B9D;fontColor=#1D3557;fillColor=#A8DADC;labelBackgroundColor=none;" parent="1" vertex="1">
          <mxGeometry x="1890" y="-2010" width="90" height="40" as="geometry" />
        </mxCell>
        <mxCell id="l4wrO5oQ-57OkwG1G9x9-203" value="返回音频" style="whiteSpace=wrap;html=1;strokeColor=#457B9D;fontColor=#1D3557;fillColor=#A8DADC;labelBackgroundColor=none;" parent="1" vertex="1">
          <mxGeometry x="1890" y="-1852" width="90" height="40" as="geometry" />
        </mxCell>
        <mxCell id="l4wrO5oQ-57OkwG1G9x9-204" value="STT" style="whiteSpace=wrap;html=1;strokeColor=#457B9D;fontColor=#1D3557;fillColor=#A8DADC;labelBackgroundColor=none;" parent="1" vertex="1">
          <mxGeometry x="1890" y="-1932" width="90" height="40" as="geometry" />
        </mxCell>
        <mxCell id="l4wrO5oQ-57OkwG1G9x9-205" value="" style="endArrow=classic;html=1;rounded=0;strokeColor=#457B9D;fontColor=default;fillColor=#A8DADC;labelBackgroundColor=none;" parent="1" edge="1">
          <mxGeometry width="50" height="50" relative="1" as="geometry">
            <mxPoint x="1930" y="-1892" as="sourcePoint" />
            <mxPoint x="1930" y="-1852" as="targetPoint" />
          </mxGeometry>
        </mxCell>
        <mxCell id="l4wrO5oQ-57OkwG1G9x9-206" value="" style="endArrow=classic;html=1;rounded=0;strokeColor=#457B9D;fontColor=default;fillColor=#A8DADC;entryX=0.439;entryY=0.013;entryDx=0;entryDy=0;entryPerimeter=0;labelBackgroundColor=none;" parent="1" target="l4wrO5oQ-57OkwG1G9x9-204" edge="1">
          <mxGeometry width="50" height="50" relative="1" as="geometry">
            <mxPoint x="1930" y="-1970" as="sourcePoint" />
            <mxPoint x="1930" y="-1940" as="targetPoint" />
          </mxGeometry>
        </mxCell>
        <mxCell id="l4wrO5oQ-57OkwG1G9x9-207" value="" style="endArrow=classic;html=1;rounded=0;strokeColor=#457B9D;fontColor=default;fillColor=#A8DADC;labelBackgroundColor=none;" parent="1" edge="1">
          <mxGeometry width="50" height="50" relative="1" as="geometry">
            <mxPoint x="1930" y="-1810" as="sourcePoint" />
            <mxPoint x="1930" y="-1770" as="targetPoint" />
          </mxGeometry>
        </mxCell>
        <mxCell id="l4wrO5oQ-57OkwG1G9x9-208" value="end" style="text;html=1;align=center;verticalAlign=middle;resizable=0;points=[];autosize=1;strokeColor=none;fillColor=none;fontColor=#1D3557;labelBackgroundColor=none;" parent="1" vertex="1">
          <mxGeometry x="1930" y="-1805" width="40" height="30" as="geometry" />
        </mxCell>
        <mxCell id="l4wrO5oQ-57OkwG1G9x9-209" value="main" style="text;html=1;align=center;verticalAlign=middle;resizable=0;points=[];autosize=1;strokeColor=none;fillColor=none;fontColor=#1D3557;labelBackgroundColor=none;" parent="1" vertex="1">
          <mxGeometry x="2135" y="-2152" width="50" height="30" as="geometry" />
        </mxCell>
        <mxCell id="l4wrO5oQ-57OkwG1G9x9-210" value="开始" style="ellipse;whiteSpace=wrap;html=1;strokeColor=#457B9D;fontColor=#1D3557;fillColor=#A8DADC;labelBackgroundColor=none;" parent="1" vertex="1">
          <mxGeometry x="2220" y="-2200" width="70" height="50" as="geometry" />
        </mxCell>
        <mxCell id="l4wrO5oQ-57OkwG1G9x9-211" value="是否收到中断" style="rhombus;whiteSpace=wrap;html=1;strokeColor=#457B9D;fontColor=#1D3557;fillColor=#A8DADC;labelBackgroundColor=none;" parent="1" vertex="1">
          <mxGeometry x="2215" y="-2070" width="80" height="80" as="geometry" />
        </mxCell>
        <mxCell id="l4wrO5oQ-57OkwG1G9x9-212" value="audio input" style="whiteSpace=wrap;html=1;strokeColor=#457B9D;fontColor=#1D3557;fillColor=#A8DADC;labelBackgroundColor=none;" parent="1" vertex="1">
          <mxGeometry x="2215" y="-1943" width="90" height="40" as="geometry" />
        </mxCell>
        <mxCell id="l4wrO5oQ-57OkwG1G9x9-213" value="chat" style="whiteSpace=wrap;html=1;strokeColor=#457B9D;fontColor=#1D3557;fillColor=#A8DADC;labelBackgroundColor=none;" parent="1" vertex="1">
          <mxGeometry x="2215" y="-1785" width="90" height="40" as="geometry" />
        </mxCell>
        <mxCell id="l4wrO5oQ-57OkwG1G9x9-214" value="STT" style="whiteSpace=wrap;html=1;strokeColor=#457B9D;fontColor=#1D3557;fillColor=#A8DADC;labelBackgroundColor=none;" parent="1" vertex="1">
          <mxGeometry x="2215" y="-1865" width="90" height="40" as="geometry" />
        </mxCell>
        <mxCell id="l4wrO5oQ-57OkwG1G9x9-215" value="" style="endArrow=classic;html=1;rounded=0;strokeColor=#457B9D;fontColor=default;fillColor=#A8DADC;labelBackgroundColor=none;" parent="1" edge="1">
          <mxGeometry width="50" height="50" relative="1" as="geometry">
            <mxPoint x="2255" y="-1825" as="sourcePoint" />
            <mxPoint x="2255" y="-1785" as="targetPoint" />
          </mxGeometry>
        </mxCell>
        <mxCell id="l4wrO5oQ-57OkwG1G9x9-216" value="" style="endArrow=classic;html=1;rounded=0;strokeColor=#457B9D;fontColor=default;fillColor=#A8DADC;entryX=0.439;entryY=0.013;entryDx=0;entryDy=0;entryPerimeter=0;labelBackgroundColor=none;" parent="1" target="l4wrO5oQ-57OkwG1G9x9-214" edge="1">
          <mxGeometry width="50" height="50" relative="1" as="geometry">
            <mxPoint x="2255" y="-1903" as="sourcePoint" />
            <mxPoint x="2255" y="-1873" as="targetPoint" />
          </mxGeometry>
        </mxCell>
        <mxCell id="l4wrO5oQ-57OkwG1G9x9-217" value="audio output" style="whiteSpace=wrap;html=1;strokeColor=#457B9D;fontColor=#1D3557;fillColor=#A8DADC;labelBackgroundColor=none;" parent="1" vertex="1">
          <mxGeometry x="2215" y="-1627" width="90" height="40" as="geometry" />
        </mxCell>
        <mxCell id="l4wrO5oQ-57OkwG1G9x9-218" value="TTS" style="whiteSpace=wrap;html=1;strokeColor=#457B9D;fontColor=#1D3557;fillColor=#A8DADC;labelBackgroundColor=none;" parent="1" vertex="1">
          <mxGeometry x="2215" y="-1707" width="90" height="40" as="geometry" />
        </mxCell>
        <mxCell id="l4wrO5oQ-57OkwG1G9x9-219" value="" style="endArrow=classic;html=1;rounded=0;strokeColor=#457B9D;fontColor=default;fillColor=#A8DADC;labelBackgroundColor=none;" parent="1" edge="1">
          <mxGeometry width="50" height="50" relative="1" as="geometry">
            <mxPoint x="2254.17" y="-1667" as="sourcePoint" />
            <mxPoint x="2254.17" y="-1627" as="targetPoint" />
          </mxGeometry>
        </mxCell>
        <mxCell id="l4wrO5oQ-57OkwG1G9x9-220" value="" style="endArrow=classic;html=1;rounded=0;strokeColor=#457B9D;fontColor=default;fillColor=#A8DADC;entryX=0.439;entryY=0.013;entryDx=0;entryDy=0;entryPerimeter=0;labelBackgroundColor=none;" parent="1" target="l4wrO5oQ-57OkwG1G9x9-218" edge="1">
          <mxGeometry width="50" height="50" relative="1" as="geometry">
            <mxPoint x="2255" y="-1745" as="sourcePoint" />
            <mxPoint x="2255" y="-1715" as="targetPoint" />
          </mxGeometry>
        </mxCell>
        <mxCell id="l4wrO5oQ-57OkwG1G9x9-221" value="" style="endArrow=classic;html=1;rounded=0;strokeColor=#457B9D;fontColor=default;fillColor=#A8DADC;exitX=0.5;exitY=1;exitDx=0;exitDy=0;labelBackgroundColor=none;" parent="1" source="l4wrO5oQ-57OkwG1G9x9-210" edge="1">
          <mxGeometry width="50" height="50" relative="1" as="geometry">
            <mxPoint x="2254.58" y="-2105" as="sourcePoint" />
            <mxPoint x="2255" y="-2070" as="targetPoint" />
          </mxGeometry>
        </mxCell>
        <mxCell id="l4wrO5oQ-57OkwG1G9x9-222" value="" style="endArrow=classic;html=1;rounded=0;strokeColor=#457B9D;fontColor=default;fillColor=#A8DADC;entryX=0.428;entryY=0.037;entryDx=0;entryDy=0;entryPerimeter=0;labelBackgroundColor=none;" parent="1" edge="1">
          <mxGeometry width="50" height="50" relative="1" as="geometry">
            <mxPoint x="2255.5299999999997" y="-1990" as="sourcePoint" />
            <mxPoint x="2254.4700000000003" y="-1941.52" as="targetPoint" />
          </mxGeometry>
        </mxCell>
        <mxCell id="l4wrO5oQ-57OkwG1G9x9-223" value="" style="endArrow=classic;html=1;rounded=0;strokeColor=#457B9D;fontColor=default;fillColor=#A8DADC;exitX=1;exitY=0.5;exitDx=0;exitDy=0;labelBackgroundColor=none;" parent="1" source="l4wrO5oQ-57OkwG1G9x9-211" edge="1">
          <mxGeometry width="50" height="50" relative="1" as="geometry">
            <mxPoint x="2360" y="-2100" as="sourcePoint" />
            <mxPoint x="2260" y="-2100" as="targetPoint" />
            <Array as="points">
              <mxPoint x="2350" y="-2030" />
              <mxPoint x="2350" y="-2100" />
            </Array>
          </mxGeometry>
        </mxCell>
        <mxCell id="l4wrO5oQ-57OkwG1G9x9-224" value="否" style="text;html=1;align=center;verticalAlign=middle;resizable=0;points=[];autosize=1;strokeColor=none;fillColor=none;fontColor=#1D3557;labelBackgroundColor=none;" parent="1" vertex="1">
          <mxGeometry x="2350" y="-2082" width="40" height="30" as="geometry" />
        </mxCell>
        <mxCell id="l4wrO5oQ-57OkwG1G9x9-225" value="是" style="text;html=1;align=center;verticalAlign=middle;resizable=0;points=[];autosize=1;strokeColor=none;fillColor=none;fontColor=#1D3557;labelBackgroundColor=none;" parent="1" vertex="1">
          <mxGeometry x="2250" y="-1992" width="40" height="30" as="geometry" />
        </mxCell>
        <mxCell id="l4wrO5oQ-57OkwG1G9x9-226" value="" style="endArrow=classic;html=1;rounded=0;strokeColor=#457B9D;fontColor=default;fillColor=#A8DADC;labelBackgroundColor=none;" parent="1" edge="1">
          <mxGeometry width="50" height="50" relative="1" as="geometry">
            <mxPoint x="2255" y="-1587" as="sourcePoint" />
            <mxPoint x="2260" y="-2120" as="targetPoint" />
            <Array as="points">
              <mxPoint x="2255" y="-1540" />
              <mxPoint x="2410" y="-1540" />
              <mxPoint x="2410" y="-2120" />
            </Array>
          </mxGeometry>
        </mxCell>
        <mxCell id="l4wrO5oQ-57OkwG1G9x9-227" value="" style="line;strokeWidth=2;html=1;strokeColor=#457B9D;fontColor=#1D3557;fillColor=#A8DADC;labelBackgroundColor=none;" parent="1" vertex="1">
          <mxGeometry x="2160" y="-1570" width="160" height="10" as="geometry" />
        </mxCell>
        <mxCell id="l4wrO5oQ-57OkwG1G9x9-228" value="" style="line;strokeWidth=2;html=1;strokeColor=#457B9D;fontColor=#1D3557;fillColor=#A8DADC;labelBackgroundColor=none;" parent="1" vertex="1">
          <mxGeometry x="2160" y="-1892" width="160" height="10" as="geometry" />
        </mxCell>
        <mxCell id="l4wrO5oQ-57OkwG1G9x9-229" value="" style="endArrow=classic;startArrow=classic;html=1;rounded=0;strokeColor=#457B9D;fontColor=default;fillColor=#A8DADC;exitX=0;exitY=0.5;exitDx=0;exitDy=0;exitPerimeter=0;entryX=0;entryY=0.5;entryDx=0;entryDy=0;entryPerimeter=0;labelBackgroundColor=none;" parent="1" source="l4wrO5oQ-57OkwG1G9x9-227" target="l4wrO5oQ-57OkwG1G9x9-228" edge="1">
          <mxGeometry width="50" height="50" relative="1" as="geometry">
            <mxPoint x="2135" y="-1715" as="sourcePoint" />
            <mxPoint x="2185" y="-1765" as="targetPoint" />
          </mxGeometry>
        </mxCell>
        <mxCell id="l4wrO5oQ-57OkwG1G9x9-239" value="audio input" style="text;html=1;align=center;verticalAlign=middle;resizable=0;points=[];autosize=1;strokeColor=none;fillColor=none;" parent="1" vertex="1">
          <mxGeometry x="870" y="-2132" width="80" height="30" as="geometry" />
        </mxCell>
        <mxCell id="n-WtJjGvYLoa8w4TGu2S-6" value="GPIO管理" style="whiteSpace=wrap;html=1;labelBackgroundColor=none;fillColor=#A8DADC;strokeColor=#457B9D;fontColor=#1D3557;" vertex="1" parent="1">
          <mxGeometry x="570" y="-1660" width="170" height="40" as="geometry" />
        </mxCell>
        <mxCell id="n-WtJjGvYLoa8w4TGu2S-21" value="&lt;font style=&quot;font-size: 18px;&quot;&gt;外&lt;/font&gt;" style="text;html=1;align=center;verticalAlign=middle;resizable=0;points=[];autosize=1;strokeColor=none;fillColor=none;fontStyle=0;fontColor=#453F59;" vertex="1" parent="1">
          <mxGeometry x="2110" y="-1880" width="40" height="40" as="geometry" />
        </mxCell>
        <mxCell id="n-WtJjGvYLoa8w4TGu2S-22" value="&lt;font style=&quot;font-size: 18px;&quot;&gt;部&lt;/font&gt;" style="text;html=1;align=center;verticalAlign=middle;resizable=0;points=[];autosize=1;strokeColor=none;fillColor=none;fontColor=#453f59;" vertex="1" parent="1">
          <mxGeometry x="2110" y="-1825" width="40" height="40" as="geometry" />
        </mxCell>
        <mxCell id="n-WtJjGvYLoa8w4TGu2S-23" value="&lt;font style=&quot;font-size: 18px;&quot;&gt;中&lt;/font&gt;" style="text;html=1;align=center;verticalAlign=middle;resizable=0;points=[];autosize=1;strokeColor=none;fillColor=none;fontColor=#453f59;" vertex="1" parent="1">
          <mxGeometry x="2110" y="-1770" width="40" height="40" as="geometry" />
        </mxCell>
        <mxCell id="n-WtJjGvYLoa8w4TGu2S-24" value="&lt;font style=&quot;font-size: 18px;&quot;&gt;断&lt;/font&gt;" style="text;html=1;align=center;verticalAlign=middle;resizable=0;points=[];autosize=1;strokeColor=none;fillColor=none;fontColor=#453F59;" vertex="1" parent="1">
          <mxGeometry x="2110" y="-1720" width="40" height="40" as="geometry" />
        </mxCell>
        <mxCell id="n-WtJjGvYLoa8w4TGu2S-25" value="&lt;font style=&quot;font-size: 18px;&quot;&gt;关&lt;/font&gt;" style="text;html=1;align=center;verticalAlign=middle;resizable=0;points=[];autosize=1;strokeColor=none;fillColor=none;fontColor=#453f59;" vertex="1" parent="1">
          <mxGeometry x="2110" y="-1672" width="40" height="40" as="geometry" />
        </mxCell>
        <mxCell id="n-WtJjGvYLoa8w4TGu2S-26" value="&lt;font style=&quot;font-size: 18px;&quot;&gt;闭&lt;/font&gt;" style="text;html=1;align=center;verticalAlign=middle;resizable=0;points=[];autosize=1;strokeColor=none;fillColor=none;fontColor=#453f59;" vertex="1" parent="1">
          <mxGeometry x="2110" y="-1617" width="40" height="40" as="geometry" />
        </mxCell>
        <mxCell id="n-WtJjGvYLoa8w4TGu2S-31" value="" style="strokeWidth=2;html=1;shape=mxgraph.flowchart.annotation_1;align=left;pointerEvents=1;points=[[0,0,0,0,0],[0,0.5,0,0,0],[0,1,0,0,0],[0.5,0,0,0,0],[0.5,1,0,0,0],[1,0,0,0,0],[1,0.5,0,0,0],[1,1,0,0,0]];fillColor=#dae8fc;strokeColor=#6c8ebf;" vertex="1" parent="1">
          <mxGeometry x="545" y="-1690" width="25" height="50" as="geometry" />
        </mxCell>
      </root>
    </mxGraphModel>
  </diagram>
</mxfile>
